<?xml version="1.0" encoding="UTF-8" standalone="no"?>
<!-- Created with Inkscape (http://www.inkscape.org/) -->

<svg
   xmlns:dc="http://purl.org/dc/elements/1.1/"
   xmlns:cc="http://creativecommons.org/ns#"
   xmlns:rdf="http://www.w3.org/1999/02/22-rdf-syntax-ns#"
   xmlns:svg="http://www.w3.org/2000/svg"
   xmlns="http://www.w3.org/2000/svg"
   xmlns:sodipodi="http://sodipodi.sourceforge.net/DTD/sodipodi-0.dtd"
   xmlns:inkscape="http://www.inkscape.org/namespaces/inkscape"
   width="196"
   height="196"
   viewBox="0 0 196 196"
   id="svg4174"
   version="1.1"
   inkscape:version="0.91 r13725"
   sodipodi:docname="icon.svg"
   inkscape:export-filename="C:\Users\Sam\Downloads\Digilent ANIC Logo\SVG\EE Pocket Ref\icon.png"
   inkscape:export-xdpi="90"
   inkscape:export-ydpi="90">
  <defs
     id="defs4176" />
  <sodipodi:namedview
     id="base"
     pagecolor="#ffffff"
     bordercolor="#666666"
     borderopacity="1.0"
     inkscape:pageopacity="0.0"
     inkscape:pageshadow="2"
     inkscape:zoom="1.7559727"
     inkscape:cx="-1.7432167"
     inkscape:cy="105.14374"
     inkscape:document-units="px"
     inkscape:current-layer="g4926"
     showgrid="false"
     inkscape:window-width="1920"
     inkscape:window-height="1017"
     inkscape:window-x="1912"
     inkscape:window-y="-8"
     inkscape:window-maximized="1" />
  <metadata
     id="metadata4179">
    <rdf:RDF>
      <cc:Work
         rdf:about="">
        <dc:format>image/svg+xml</dc:format>
        <dc:type
           rdf:resource="http://purl.org/dc/dcmitype/StillImage" />
        <dc:title />
      </cc:Work>
    </rdf:RDF>
  </metadata>
  <g
     inkscape:label="Layer 1"
     inkscape:groupmode="layer"
     id="layer1"
     transform="translate(0,-856.3622)">
    <g
       id="g4926"
       transform="matrix(1.5638298,0,0,1.5638298,-64.215867,-552.47013)">
      <g
         transform="matrix(2.1609195,0,0,2.1609195,36.976189,900.88597)"
         id="g4769">
        <path
           id="path4729"
           d="M 52.106341,0 9.9103414,0 c -2.152,0 -3.799224,2.0654531 -3.902,3.902 -0.6962353,12.441319 0.5523519,30.370558 0,48.098 -0.088085,2.827055 2.691,6 5.9999996,6 l 44,0 0,-10 0,-2 0,-42.098 c 0,-2.152 -1.75,-3.902 -3.902,-3.902 z"
           inkscape:connector-curvature="0"
           style="fill:#333333"
           sodipodi:nodetypes="ssssscccss" />
        <path
           id="path4731"
           d="m 30,34 c 2.067,0 4.029,-0.692 5.619,-1.967 L 28.586,25 35.619,17.967 C 34.029,16.692 32.068,16 30,16 c -2.404,0 -4.664,0.936 -6.364,2.636 -3.509,3.509 -3.509,9.219 0,12.729 C 25.335,33.064 27.596,34 30,34 Z M 29,18 c 1.105,0 2,0.895 2,2 0,1.105 -0.895,2 -2,2 -1.105,0 -2,-0.895 -2,-2 0,-1.105 0.895,-2 2,-2 z"
           inkscape:connector-curvature="0"
           style="fill:#333333" />
        <path
           sodipodi:nodetypes="cccssscc"
           style="fill:#333333"
           inkscape:connector-curvature="0"
           d="m 30.008341,14 c -18.744672,29.333334 -9.372336,14.666667 0,0 z m 24,42 -42,0 c -2.2059996,0 -3.9999996,-1.794 -3.9999996,-4 0,-2.206 1.794,-4 3.9999996,-4 l 42,0 z"
           id="path4802" />
        <path
           id="path4812"
           d="M 54.008341,49 12.136,49 c -0.552,0 -1,0.448 -1,1 0,0.552 0.448,1 1,1 l 41.872341,0 0,2 L 12.136,53 c -0.552,0 -1,0.448 -1,1 0,0.552 0.448,1 1,1 l 41.872341,0 0,1 -42,0 c -2.2059996,0 -3.9999996,-1.794 -3.9999996,-4 0,-2.206 1.794,-4 3.9999996,-4 l 42,0 z"
           inkscape:connector-curvature="0"
           style="fill:#333333"
           sodipodi:nodetypes="csssccsssccssscc" />
        <path
           sodipodi:nodetypes="csssccsssccssscc"
           style="fill:#333333"
           inkscape:connector-curvature="0"
           d="M 54.008341,49 12.136,49 c -0.552,0 -1,0.448 -1,1 0,0.552 0.448,1 1,1 l 41.872341,0 0,2 L 12.136,53 c -0.552,0 -1,0.448 -1,1 0,0.552 0.448,1 1,1 l 41.872341,0 0,1 -42,0 c -2.2059996,0 -3.9999996,-1.794 -3.9999996,-4 0,-2.206 1.794,-4 3.9999996,-4 l 42,0 z"
           id="path4814" />
        <path
           id="path4199"
           d="M 54.008341,49 12.136,49 c -0.552,0 -1,0.448 -1,1 0,0.552 0.448,1 1,1 l 41.872341,0 0,2 L 12.136,53 c -0.552,0 -1,0.448 -1,1 0,0.552 0.448,1 1,1 l 41.872341,0 0,1 -42,0 c -2.2059996,0 -3.9999996,-1.794 -3.9999996,-4 0,-2.206 1.794,-4 3.9999996,-4 l 42,0 z"
           inkscape:connector-curvature="0"
           style="fill:#333333"
           sodipodi:nodetypes="csssccsssccssscc" />
        <path
           sodipodi:nodetypes="cccsssccsssccssscc"
           style="fill:#ffffff;fill-opacity:1"
           inkscape:connector-curvature="0"
           d="m 56,58 c -36.072445,10e-7 -18.036222,10e-7 0,0 z m -2,-8.662958 -41.872341,0 c -0.552,0 -1,0.448 -1,1 0,0.552 0.448,1 1,1 l 41.872341,0 0,1.408163 -41.872341,0 c -0.552,0 -1,0.448 -1,1 0,0.552 0.448,1 1,1 L 54,54.745205 54,56 12,56 C 9.794,56 8,54.206 8,52 8,49.794 9.794,48 12,48 l 42,0 z"
           id="path4201" />
        <g
           id="g4733" />
        <g
           id="g4735" />
        <g
           id="g4737" />
        <g
           id="g4739" />
        <g
           id="g4741" />
        <g
           id="g4743" />
        <g
           id="g4745" />
        <g
           id="g4747" />
        <g
           id="g4749" />
        <g
           id="g4751" />
        <g
           id="g4753" />
        <g
           id="g4755" />
        <g
           id="g4757" />
        <g
           id="g4759" />
        <g
           id="g4761" />
        <path
           id="path4181"
           d="m 56,58 c -36.072445,10e-7 -18.036222,10e-7 0,0 z m -2,-8.662958 -41.872341,0 c -0.552,0 -1,0.448 -1,1 0,0.552 0.448,1 1,1 l 41.872341,0 0,1.408163 -41.872341,0 c -0.552,0 -1,0.448 -1,1 0,0.552 0.448,1 1,1 L 54,54.745205 54,56 12,56 C 9.794,56 8,54.206 8,52 8,49.794 9.794,48 12,48 l 42,0 z"
           inkscape:connector-curvature="0"
           style="fill:#ffffff;fill-opacity:1"
           sodipodi:nodetypes="cccsssccsssccssscc" />
      </g>
      <circle
         r="9.9635315"
         cy="920.9693"
         cx="68.303566"
         id="path4816"
         style="opacity:1;fill:#57ac35;fill-opacity:1;stroke:#ffffff;stroke-width:4.89436626;stroke-linecap:butt;stroke-linejoin:round;stroke-miterlimit:4;stroke-dasharray:none;stroke-dashoffset:0;stroke-opacity:1" />
      <circle
         r="9.9635315"
         cy="920.9693"
         cx="96.428566"
         id="path4816-4"
         style="opacity:1;fill:#57ac35;fill-opacity:1;stroke:#ffffff;stroke-width:4.89436626;stroke-linecap:butt;stroke-linejoin:round;stroke-miterlimit:4;stroke-dasharray:none;stroke-dashoffset:0;stroke-opacity:1" />
      <circle
         r="9.9635315"
         cy="988.25507"
         cx="112.90179"
         id="path4816-8"
         style="opacity:1;fill:#57ac35;fill-opacity:1;stroke:#ffffff;stroke-width:4.89436626;stroke-linecap:butt;stroke-linejoin:round;stroke-miterlimit:4;stroke-dasharray:none;stroke-dashoffset:0;stroke-opacity:1" />
      <circle
         r="9.9635315"
         cy="988.25507"
         cx="141.02678"
         id="path4816-4-1"
         style="opacity:1;fill:#57ac35;fill-opacity:1;stroke:#ffffff;stroke-width:4.89436626;stroke-linecap:butt;stroke-linejoin:round;stroke-miterlimit:4;stroke-dasharray:none;stroke-dashoffset:0;stroke-opacity:1" />
      <circle
         style="opacity:1;fill:#57ac35;fill-opacity:1;stroke:#ffffff;stroke-width:4.89436626;stroke-linecap:butt;stroke-linejoin:round;stroke-miterlimit:4;stroke-dasharray:none;stroke-dashoffset:0;stroke-opacity:1"
         id="circle4872"
         cx="68.303566"
         cy="920.9693"
         r="9.9635315" />
      <circle
         style="opacity:1;fill:#57ac35;fill-opacity:1;stroke:#ffffff;stroke-width:4.89436626;stroke-linecap:butt;stroke-linejoin:round;stroke-miterlimit:4;stroke-dasharray:none;stroke-dashoffset:0;stroke-opacity:1"
         id="circle4874"
         cx="96.428566"
         cy="920.9693"
         r="9.9635315" />
      <path
         sodipodi:nodetypes="cc"
         inkscape:connector-curvature="0"
         id="path4918"
         d="m 90.535715,964.8622 c 0.892857,-0.35714 34.821435,-19.46429 34.821435,-19.46429"
         style="fill:none;fill-rule:evenodd;stroke:#333333;stroke-width:8;stroke-linecap:butt;stroke-linejoin:miter;stroke-miterlimit:4;stroke-dasharray:none;stroke-opacity:1" />
      <path
         style="fill:none;fill-rule:evenodd;stroke:#333333;stroke-width:8;stroke-linecap:butt;stroke-linejoin:miter;stroke-miterlimit:4;stroke-dasharray:none;stroke-opacity:1"
         d="m 90.535715,964.8622 c 0.892857,-0.35714 34.821435,-19.46429 34.821435,-19.46429"
         id="path4920"
         inkscape:connector-curvature="0"
         sodipodi:nodetypes="cc" />
      <path
         sodipodi:nodetypes="cccc"
         inkscape:connector-curvature="0"
         id="path4878"
         d="m 68.035715,920.39791 0,23.03572 44.787255,24.70323 0,19.76105"
         style="fill:none;fill-rule:evenodd;stroke:#57ac35;stroke-width:5;stroke-linecap:butt;stroke-linejoin:miter;stroke-miterlimit:4;stroke-dasharray:none;stroke-opacity:1" />
      <path
         sodipodi:nodetypes="cccc"
         inkscape:connector-curvature="0"
         id="path4878-8"
         d="m 96.534944,917.71934 0,23.03572 44.787256,24.70323 0,19.76105"
         style="fill:none;fill-rule:evenodd;stroke:#57ac35;stroke-width:5;stroke-linecap:butt;stroke-linejoin:miter;stroke-miterlimit:4;stroke-dasharray:none;stroke-opacity:1" />
      <text
         sodipodi:linespacing="125%"
         id="text4922"
         y="992.78589"
         x="58.714104"
         style="font-style:normal;font-weight:normal;font-size:12.5px;line-height:125%;font-family:sans-serif;letter-spacing:0px;word-spacing:0px;fill:#000000;fill-opacity:1;stroke:none;stroke-width:1px;stroke-linecap:butt;stroke-linejoin:miter;stroke-opacity:1"
         xml:space="preserve"><tspan
           style="font-style:normal;font-variant:normal;font-weight:bold;font-stretch:normal;font-size:30px;font-family:'Segoe UI';-inkscape-font-specification:'Segoe UI Bold';fill:#ffffff"
           y="992.78589"
           x="58.714104"
           id="tspan4924"
           sodipodi:role="line">EE</tspan></text>
    </g>
  </g>
</svg>
