<?xml version="1.0" encoding="UTF-8" standalone="no"?>
<svg
   xmlns:dc="http://purl.org/dc/elements/1.1/"
   xmlns:cc="http://creativecommons.org/ns#"
   xmlns:rdf="http://www.w3.org/1999/02/22-rdf-syntax-ns#"
   xmlns:svg="http://www.w3.org/2000/svg"
   xmlns="http://www.w3.org/2000/svg"
   xmlns:sodipodi="http://sodipodi.sourceforge.net/DTD/sodipodi-0.dtd"
   xmlns:inkscape="http://www.inkscape.org/namespaces/inkscape"
   viewBox="0 0 2208 2208"
   height="2208"
   width="2208"
   xml:space="preserve"
   id="svg2"
   version="1.1"
   inkscape:version="0.91 r13725"
   sodipodi:docname="splash.svg"><sodipodi:namedview
     pagecolor="#dde4e3"
     bordercolor="#666666"
     borderopacity="1"
     objecttolerance="10"
     gridtolerance="10"
     guidetolerance="10"
     inkscape:pageopacity="1"
     inkscape:pageshadow="2"
     inkscape:window-width="1920"
     inkscape:window-height="1017"
     id="namedview46"
     showgrid="false"
     inkscape:zoom="0.20364675"
     inkscape:cx="1533.4055"
     inkscape:cy="886.09378"
     inkscape:window-x="1912"
     inkscape:window-y="-8"
     inkscape:window-maximized="1"
     inkscape:current-layer="g10"
     showguides="true"
     inkscape:guide-bbox="true"><sodipodi:guide
       position="504,2204.7982"
       orientation="1,0"
       id="guide4804"
       inkscape:label=""
       inkscape:color="rgb(0,0,255)" /><sodipodi:guide
       position="1704,1811.9611"
       orientation="1,0"
       id="guide4806"
       inkscape:label=""
       inkscape:color="rgb(0,0,255)" /><sodipodi:guide
       position="869.15209,504"
       orientation="0,1"
       id="guide4808"
       inkscape:label=""
       inkscape:color="rgb(0,0,255)" /><sodipodi:guide
       position="987.00322,1704"
       orientation="0,1"
       id="guide4810"
       inkscape:label=""
       inkscape:color="rgb(0,0,255)" /></sodipodi:namedview><metadata
     id="metadata8"><rdf:RDF><cc:Work
         rdf:about=""><dc:format>image/svg+xml</dc:format><dc:type
           rdf:resource="http://purl.org/dc/dcmitype/StillImage" /><dc:title></dc:title></cc:Work></rdf:RDF></metadata><defs
     id="defs6" /><g
     transform="matrix(0.51230925,0,0,-0.51230925,335.53604,1266.3958)"
     id="g10"><g
       transform="matrix(0.15966839,0,0,0.15966839,328.83252,69.490584)"
       id="g12"><path
         id="path14"
         style="fill:#393536;fill-opacity:1;fill-rule:nonzero;stroke:none"
         d="m 3688.46,1477.86 c 436.39,0 498.34,357.57 498.34,481.52 0,123.95 -61.95,479.12 -498.34,479.12 l -250.5,0 0,-960.64 z m -678.79,-355.16 0,1668.59 678.79,0 c 716.52,0 934.71,-483.88 934.71,-831.91 0,-357.57 -218.19,-836.68 -934.71,-836.68 l -678.79,0"
         inkscape:connector-curvature="0" /><path
         id="path16"
         style="fill:#393536;fill-opacity:1;fill-rule:nonzero;stroke:none"
         d="m 4854.02,1122.7 430.996,0 0,1668.59 -430.996,0 z"
         inkscape:connector-curvature="0" /><path
         id="path18"
         style="fill:#393536;fill-opacity:1;fill-rule:nonzero;stroke:none"
         d="m 6364.34,1693.61 0,341.13 791.93,0 0,-661.39 c -185.82,-160.13 -406.7,-250.65 -703.04,-250.65 -716.48,0 -937.36,487.36 -937.36,835.47 0,338.83 220.88,833.12 937.36,833.12 307.1,0 527.98,-109.07 716.54,-283.11 l -266.65,-250.64 c -110.47,97.46 -301.72,183.34 -449.89,183.34 -436.38,0 -498.28,-357.39 -498.28,-478.07 0,-120.68 61.9,-496.63 498.28,-496.63 91.59,0 207.44,27.85 269.39,67.3 l 0,160.13 -358.28,0"
         inkscape:connector-curvature="0" /><path
         id="path20"
         style="fill:#393536;fill-opacity:1;fill-rule:nonzero;stroke:none"
         d="m 7400.62,1122.7 430.953,0 0,1668.59 -430.953,0 z"
         inkscape:connector-curvature="0" /><path
         id="path22"
         style="fill:#393536;fill-opacity:1;fill-rule:nonzero;stroke:none"
         d="m 8496.13,1477.86 681.52,0 0,-355.16 -1115.17,0 0,1668.59 433.65,0 0,-1313.43"
         inkscape:connector-curvature="0" /><path
         id="path24"
         style="fill:#393536;fill-opacity:1;fill-rule:nonzero;stroke:none"
         d="m 9839.46,1768.68 0,-290.82 872.74,0 0,-355.16 -1303.69,0 0,1668.59 1303.69,0 0,-355.18 -872.74,0 0,-312.26 681.54,0 0,-355.17 -681.54,0"
         inkscape:connector-curvature="0" /><path
         id="path26"
         style="fill:#393536;fill-opacity:1;fill-rule:nonzero;stroke:none"
         d="m 10967.3,2791.29 1107.1,-847.14 0,826.14 431,0 0,-1638.25 -21.6,-9.34 -1107,854.13 0,-840.12 -433.7,0 0,1647.59 24.2,6.99"
         inkscape:connector-curvature="0" /><path
         id="path28"
         style="fill:#393536;fill-opacity:1;fill-rule:nonzero;stroke:none"
         d="m 13229.2,2436.11 -493,0 0,355.18 1425,0 0,-355.18 -498.3,0 0,-1313.41 -433.7,0 0,1313.41"
         inkscape:connector-curvature="0" /><path
         id="path30"
         style="fill:#393536;fill-opacity:1;fill-rule:nonzero;stroke:none"
         d="m 14505.3,2621.04 c 18.9,0.68 22.4,14.64 22.4,23.02 0,7.66 -3.5,23.01 -23.8,23.01 l -31.4,0 0,-46.03 z m -32.8,-94.22 -39.8,0 0,177.25 69.8,0 c 51,0 66.3,-35.61 66.3,-60.01 0,-22.34 -16,-43.27 -34.2,-53.74 l 36.3,-63.5 -46.7,0 -29.4,55.81 -22.3,0 z m 153.5,87.91 c 0,73.98 -58.6,133.29 -132.5,133.29 -74,0 -132.6,-59.31 -132.6,-133.29 0,-73.96 58.6,-132.59 132.6,-132.59 73.9,0 132.5,58.63 132.5,132.59 z m 44,0 c 0,-97.7 -78.9,-176.55 -176.5,-176.55 -90.1,0 -176.6,75.37 -176.6,177.95 0,90.03 76.8,175.16 176.6,175.16 97.6,0 176.5,-78.85 176.5,-176.56"
         inkscape:connector-curvature="0" /><path
         id="path32"
         style="fill:#1e4230;fill-opacity:1;fill-rule:nonzero;stroke:none"
         d="m 2580.74,1000.54 c 11.13,19.28 13.13,37.05 5.63,50.05 -7.51,13 -23.89,20.14 -46.16,20.14 l -1901.808,0 6.844,11.85 627.164,1086.28 -152.98,264.99 L 218.254,872.965 c -11.121,-19.27 -13.125,-37.039 -5.629,-50.047 7.512,-12.988 23.898,-20.145 46.16,-20.145 l 2117.615,0.012 c 23.83,0 51.13,8.184 76.87,23.043 25.73,14.867 46.46,34.41 58.38,55.047 l 69.09,119.665"
         inkscape:connector-curvature="0" /><path
         id="path34"
         style="fill:#1f6632;fill-opacity:1;fill-rule:nonzero;stroke:none"
         d="m 1112.7,2516.97 6.83,11.84 6.83,-11.84 627.17,-1086.28 305.98,0 -901.18,1560.88 c -11.12,19.27 -25.52,29.88 -40.53,29.88 -15,0 -29.39,-10.61 -40.52,-29.88 L 18.4883,1157.64 C 6.57031,1137 0,1109.28 0,1079.56 c 0,-29.72 6.57031,-57.45 18.4883,-78.1 L 87.5742,881.805 C 98.707,862.523 113.09,851.91 128.105,851.91 c 15,0 29.391,10.613 40.528,29.895 L 1112.7,2516.97"
         inkscape:connector-curvature="0" /><path
         id="path36"
         style="fill:#57ac35;fill-opacity:1;fill-rule:nonzero;stroke:none"
         d="m 2563.04,1188.15 -1058.82,1833.9 c -11.92,20.64 -32.65,40.19 -58.38,55.05 -25.73,14.86 -53.04,23.04 -76.87,23.04 l -138.18,0 c -22.26,0 -38.65,-7.16 -46.15,-20.15 -7.5,-13 -5.51,-30.77 5.62,-50.04 l 944.07,-1635.18 6.83,-11.83 -1268.008,0 -152.984,-264.99 1802.342,0.01 c 22.27,0 38.65,7.16 46.16,20.15 7.5,12.99 5.51,30.76 -5.63,50.04"
         inkscape:connector-curvature="0" /><path
         id="path38"
         style="fill:#393536;fill-opacity:1;fill-rule:nonzero;stroke:none"
         d="m 3199.33,320.801 188.01,0 -39.95,245.808 z m 128.78,314.547 73.7,0 95.73,-501.332 -75.07,0 -26.17,130.539 -230.72,0 -81.27,-130.539 -70.93,0 314.73,501.332"
         inkscape:connector-curvature="0" /><path
         id="path40"
         style="fill:#393536;fill-opacity:1;fill-rule:nonzero;stroke:none"
         d="m 3866.66,635.348 95.73,0 157.72,-414.536 86.77,414.536 63.36,0 -105.37,-501.332 -88.16,0 -163.22,425.648 -89.53,-425.648 -62.67,0 105.37,501.332"
         inkscape:connector-curvature="0" /><path
         id="path42"
         style="fill:#393536;fill-opacity:1;fill-rule:nonzero;stroke:none"
         d="m 4484.28,305.523 c -26.17,0 -124.66,0 -139.81,-70.824 -4.81,-22.219 0.69,-60.41 58.55,-60.41 33.05,0 60.6,13.188 81.95,37.496 19.28,23.606 24.1,43.051 35.81,91.653 -11.71,1.39 -20.66,2.085 -36.5,2.085 z m 8.27,-171.507 c -1.38,17.355 0.68,34.023 4.82,52.074 -43.39,-57.629 -90.91,-63.184 -119.84,-63.184 -79.2,0 -112.94,45.133 -100.55,102.766 6.2,27.777 24.79,72.211 81.96,102.07 42.01,20.836 97.1,22.914 124.65,22.914 16.53,0 26.86,-0.695 46.83,-2.078 8.96,43.047 13.09,61.797 3.45,77.07 -8.96,17.364 -36.5,22.918 -55.1,22.918 -65.43,0 -78.51,-45.136 -81.95,-59.019 l -64.75,0 c 6.21,18.051 13.09,42.351 37.88,65.961 32.37,29.164 83.34,37.496 119.84,37.496 50.28,0 100.55,-15.969 111.57,-51.383 6.89,-20.832 4.13,-37.496 0.69,-53.469 l -37.88,-166.648 c -1.38,-5.551 -10.33,-52.074 -13.08,-87.488 l -58.54,0"
         inkscape:connector-curvature="0" /><path
         id="path44"
         style="fill:#393536;fill-opacity:1;fill-rule:nonzero;stroke:none"
         d="m 4674.77,483.977 61.3,0 15.15,72.906 68.87,20.836 -19.98,-93.742 77.14,0 -10.33,-47.911 -77.13,0 -44.08,-209.007 c -3.45,-17.36 -9.64,-46.524 36.5,-46.524 13.08,0 26.17,2.082 31.68,3.473 l -10.34,-50.688 c -12.39,-2.086 -30.98,-4.164 -54.4,-4.164 -59.23,0 -84.02,17.352 -72.31,74.297 l 48.89,232.613 -61.29,0 10.33,47.911"
         inkscape:connector-curvature="0" /><path
         id="path46"
         style="fill:#393536;fill-opacity:1;fill-rule:nonzero;stroke:none"
         d="m 4968.48,633.961 77.85,0 -15.15,-71.52 -77.86,0 z m -24.79,-151.371 64.75,0 -73.7,-348.574 -64.73,0 73.68,348.574"
         inkscape:connector-curvature="0" /><path
         id="path48"
         style="fill:#393536;fill-opacity:1;fill-rule:nonzero;stroke:none"
         d="m 5202.08,170.816 c 48.9,0 112.28,35.411 134.33,140.266 18.58,86.793 -11.74,132.621 -72.32,132.621 -41.32,0 -113.65,-26.387 -137.07,-135.402 -15.16,-71.524 1.37,-137.485 75.06,-137.485 z m 71.64,320.801 c 138.44,0 146.7,-109.715 131.54,-182.621 -22.05,-102.07 -97.12,-186.785 -214.87,-186.785 -114.32,0 -152.91,79.855 -131.54,181.926 17.9,86.101 79.22,187.48 214.87,187.48"
         inkscape:connector-curvature="0" /><path
         id="path50"
         style="fill:#393536;fill-opacity:1;fill-rule:nonzero;stroke:none"
         d="m 5523.45,442.316 8.26,40.274 64.75,0 -11.74,-56.246 c 11.05,14.582 46.16,63.187 124.65,63.187 31,0 122.59,-11.801 99.9,-118.73 l -49.63,-236.785 -66.12,0 46.85,221.507 c 4.84,22.911 6.21,43.739 -6.21,59.711 -13.05,15.973 -34.43,23.61 -56.48,23.61 -46.8,0 -97.07,-34.024 -112.22,-104.156 l -42.01,-200.672 -64.74,0 64.74,308.3"
         inkscape:connector-curvature="0" /><path
         id="path52"
         style="fill:#393536;fill-opacity:1;fill-rule:nonzero;stroke:none"
         d="m 6066.54,305.523 c -26.17,0 -124.65,0 -139.81,-70.824 -4.84,-22.219 0.68,-60.41 58.53,-60.41 33.06,0 60.64,13.188 81.96,37.496 19.26,23.606 24.11,43.051 35.8,91.653 -11.69,1.39 -20.64,2.085 -36.48,2.085 z m 8.26,-171.507 c -1.37,17.355 0.68,34.023 4.84,52.074 -43.43,-57.629 -90.91,-63.184 -119.85,-63.184 -79.22,0 -112.96,45.133 -100.54,102.766 6.21,27.777 24.79,72.211 81.95,102.07 42.01,20.836 97.12,22.914 124.65,22.914 16.53,0 26.85,-0.695 46.85,-2.078 8.94,43.047 13.05,61.797 3.42,77.07 -8.95,17.364 -36.48,22.918 -55.11,22.918 -65.43,0 -78.49,-45.136 -81.96,-59.019 l -64.74,0 c 6.21,18.051 13.1,42.351 37.9,65.961 32.37,29.164 83.32,37.496 119.85,37.496 50.27,0 100.54,-15.969 111.54,-51.383 6.9,-20.832 4.16,-37.496 0.69,-53.469 l -37.85,-166.648 c -1.37,-5.551 -10.37,-52.074 -13.11,-87.488 l -58.53,0"
         inkscape:connector-curvature="0" /><path
         id="path54"
         style="fill:#393536;fill-opacity:1;fill-rule:nonzero;stroke:none"
         d="m 6341.55,634.66 64.69,0 -105.33,-500.644 -64.74,0 105.38,500.644"
         inkscape:connector-curvature="0" /><path
         id="path56"
         style="fill:#393536;fill-opacity:1;fill-rule:nonzero;stroke:none"
         d="m 6723.07,635.348 68.85,0 -105.33,-501.332 -68.9,0 105.38,501.332"
         inkscape:connector-curvature="0" /><path
         id="path58"
         style="fill:#393536;fill-opacity:1;fill-rule:nonzero;stroke:none"
         d="m 6865.61,442.316 8.26,40.274 64.75,0 -11.69,-56.246 c 11,14.582 46.11,63.187 124.64,63.187 31.01,0 122.6,-11.801 99.86,-118.73 l -49.59,-236.785 -66.11,0 46.85,221.507 c 4.79,22.911 6.21,43.739 -6.21,59.711 -13.11,15.973 -34.43,23.61 -56.48,23.61 -46.85,0 -97.12,-34.024 -112.28,-104.156 l -42,-200.672 -64.74,0 64.74,308.3"
         inkscape:connector-curvature="0" /><path
         id="path60"
         style="fill:#393536;fill-opacity:1;fill-rule:nonzero;stroke:none"
         d="m 7271.18,237.477 c -6.2,-26.391 -0.68,-63.188 62.01,-63.188 26.85,0 48.22,4.856 65.43,22.223 8.95,9.023 15.84,20.828 17.9,32.633 7.57,34.027 -15.85,40.269 -64.75,52.074 -68.85,16.664 -126.01,31.246 -110.9,104.156 13.1,63.879 77.16,105.547 157.06,105.547 43.38,0 101.23,-12.5 113.6,-54.16 4.84,-19.446 1.42,-36.11 -2.05,-50.692 l -66.12,0 c 13.11,52.774 -31,56.942 -54.42,56.942 -9.64,0 -70.23,0 -81.23,-49.992 -6.21,-31.946 22.69,-39.586 39.91,-44.442 90.9,-22.918 110.22,-28.473 126.74,-47.91 15.16,-18.059 17.22,-42.359 12.38,-64.578 -8.27,-38.887 -36.48,-72.223 -65.43,-88.188 -33.74,-18.746 -71.59,-23.613 -107.43,-23.613 -70.22,0 -129.44,29.164 -110.86,113.188 l 68.16,0"
         inkscape:connector-curvature="0" /><path
         id="path62"
         style="fill:#393536;fill-opacity:1;fill-rule:nonzero;stroke:none"
         d="m 7573.34,483.977 61.27,0 15.16,72.906 68.85,20.836 -19.95,-93.742 77.12,0 -10.32,-47.911 -77.12,0 -44.11,-209.007 c -3.42,-17.36 -9.63,-46.524 36.53,-46.524 13.06,0 26.16,2.082 31.69,3.473 l -10.37,-50.688 c -12.37,-2.086 -30.95,-4.164 -54.38,-4.164 -59.26,0 -84.05,17.352 -72.32,74.297 l 48.9,232.613 -61.32,0 10.37,47.911"
         inkscape:connector-curvature="0" /><path
         id="path64"
         style="fill:#393536;fill-opacity:1;fill-rule:nonzero;stroke:none"
         d="m 7828.35,411.762 c 4.79,23.609 8.95,47.914 11.69,70.828 l 65.43,0 -13.11,-67.356 c 22.74,48.606 67.53,64.578 97.12,68.743 20,2.773 34.42,2.085 45.47,1.39 l -13.79,-63.883 c -3.42,1.387 -6.89,2.082 -11.68,2.778 -4.84,0.695 -11.05,0.695 -18.59,0.695 -76.47,0 -104,-45.832 -116.43,-105.547 l -39.26,-185.394 -65.38,0 58.53,277.746"
         inkscape:connector-curvature="0" /><path
         id="path66"
         style="fill:#393536;fill-opacity:1;fill-rule:nonzero;stroke:none"
         d="m 8141.9,482.59 -47.53,-224.281 c -6.9,-34.024 -8.95,-77.075 57.16,-77.075 32.37,0 65.43,11.106 89.54,38.879 19.27,20.836 24.79,47.914 28.22,65.278 l 42,197.199 66.85,0 -59.96,-283.309 c -1.36,-6.941 -8.26,-45.828 -11.68,-65.265 l -67.48,0 11,59.714 c -17.22,-24.3 -48.9,-63.187 -123.28,-63.187 -85.38,0 -115.01,49.301 -100.54,118.039 l 49.59,234.008 66.11,0"
         inkscape:connector-curvature="0" /><path
         id="path68"
         style="fill:#393536;fill-opacity:1;fill-rule:nonzero;stroke:none"
         d="m 8479.75,436.066 8.95,46.524 65.42,0 -11,-50.692 c 44.75,54.852 92.28,59.719 121.91,59.719 76.43,0 92.27,-39.582 99.17,-65.273 15.84,19.445 53.69,65.273 130.17,65.273 49.59,0 122.59,-20.832 101.22,-123.601 l -49.58,-234 -65.43,0 46.85,223.586 c 6.89,30.55 4.11,43.746 0,52.773 -8.27,15.969 -26.85,30.551 -59.95,30.551 -42.01,0 -69.54,-24.301 -81.23,-36.801 -20,-21.527 -28.26,-59.719 -31,-74.992 l -41.32,-195.117 -65.43,0 48.9,230.527 c 8.95,43.055 -8.95,76.383 -59.95,76.383 -44.06,0 -74.38,-27.774 -84.01,-38.192 -18.58,-20.136 -25.48,-48.605 -29.58,-70.824 l -42.01,-197.894 -65.42,0 63.32,302.05"
         inkscape:connector-curvature="0" /><path
         id="path70"
         style="fill:#393536;fill-opacity:1;fill-rule:nonzero;stroke:none"
         d="m 9323.27,342.324 c 7.59,33.332 15.85,102.77 -64.06,102.77 -42,0 -98.48,-25.692 -115.69,-102.77 z M 9131.1,296.496 c -16.53,-72.211 1.42,-125.68 72.32,-125.68 42.01,0 80.59,22.223 96.43,72.215 l 64.74,0 c -5.52,-17.359 -14.47,-45.828 -44.79,-72.914 -18.58,-17.355 -59.21,-46.515 -128.75,-46.515 -108.85,0 -146.02,68.046 -123.28,178.449 14.43,68.75 40.64,125.683 103.28,163.875 37.9,23.605 79.22,25.691 99.17,25.691 154.96,0 122.59,-138.183 109.53,-195.121 l -248.65,0"
         inkscape:connector-curvature="0" /><path
         id="path72"
         style="fill:#393536;fill-opacity:1;fill-rule:nonzero;stroke:none"
         d="m 9499.85,442.316 8.27,40.274 64.74,0 -11.74,-56.246 c 11.06,14.582 46.17,63.187 124.7,63.187 30.95,0 122.54,-11.801 99.85,-118.73 l -49.58,-236.785 -66.11,0 46.79,221.507 c 4.84,22.911 6.21,43.739 -6.21,59.711 -13.05,15.973 -34.42,23.61 -56.43,23.61 -46.84,0 -97.11,-34.024 -112.27,-104.156 l -42.01,-200.672 -64.74,0 64.74,308.3"
         inkscape:connector-curvature="0" /><path
         id="path74"
         style="fill:#393536;fill-opacity:1;fill-rule:nonzero;stroke:none"
         d="m 9861.47,483.977 61.32,0 15.11,72.906 68.9,20.836 -20,-93.742 77.2,0 -10.4,-47.911 -77.12,0 -44.06,-209.007 c -3.47,-17.36 -9.63,-46.524 36.48,-46.524 13.11,0 26.16,2.082 31.7,3.473 l -10.33,-50.688 c -12.42,-2.086 -31,-4.164 -54.43,-4.164 -59.22,0 -84,17.352 -72.32,74.297 l 48.9,232.613 -61.27,0 10.32,47.911"
         inkscape:connector-curvature="0" /><path
         id="path76"
         style="fill:#393536;fill-opacity:1;fill-rule:nonzero;stroke:none"
         d="m 10121,237.477 c -6.2,-26.391 -0.7,-63.188 62,-63.188 26.9,0 48.2,4.856 65.5,22.223 8.9,9.023 15.8,20.828 17.9,32.633 7.5,34.027 -15.9,40.269 -64.8,52.074 -68.8,16.664 -126,31.246 -110.9,104.156 13.1,63.879 77.2,105.547 157.1,105.547 43.4,0 101.2,-12.5 113.6,-54.16 4.8,-19.446 1.4,-36.11 -2.1,-50.692 l -66.1,0 c 13.1,52.774 -31,56.942 -54.4,56.942 -9.7,0 -70.2,0 -81.2,-49.992 -6.3,-31.946 22.6,-39.586 39.9,-44.442 90.9,-22.918 110.2,-28.473 126.7,-47.91 15.2,-18.059 17.2,-42.359 12.4,-64.578 -8.3,-38.887 -36.5,-72.223 -65.4,-88.188 -33.8,-18.746 -71.6,-23.613 -107.5,-23.613 -70.2,0 -129.4,29.164 -110.8,113.188 l 68.1,0"
         inkscape:connector-curvature="0" /><path
         id="path78"
         style="fill:#393536;fill-opacity:1;fill-rule:nonzero;stroke:none"
         d="m 10974.3,499.949 c 0.7,17.356 6.9,86.797 -88.8,86.797 -119.8,0 -167.4,-123.598 -185.3,-206.926 -20,-94.429 -14.4,-196.504 99.2,-196.504 30.3,0 60.6,7.633 86.8,29.856 22,19.445 31,40.965 35.1,52.769 l 75.8,0 c -31,-98.597 -129.5,-139.562 -214.9,-139.562 -175,0 -176.3,155.539 -155.6,252.746 22,105.547 96.3,263.168 273.4,263.168 70.2,0 163.2,-28.465 148,-142.344 l -73.7,0"
         inkscape:connector-curvature="0" /><path
         id="path80"
         style="fill:#393536;fill-opacity:1;fill-rule:nonzero;stroke:none"
         d="m 11205.7,170.816 c 48.9,0 112.3,35.411 134.3,140.266 18.6,86.793 -11.7,132.621 -72.3,132.621 -41.3,0 -113.6,-26.387 -137,-135.402 -15.2,-71.524 1.3,-137.485 75,-137.485 z m 71.7,320.801 c 138.4,0 146.7,-109.715 131.5,-182.621 -22,-102.07 -97.1,-186.785 -214.9,-186.785 -114.3,0 -152.9,79.855 -131.5,181.926 17.9,86.101 79.2,187.48 214.9,187.48"
         inkscape:connector-curvature="0" /><path
         id="path82"
         style="fill:#393536;fill-opacity:1;fill-rule:nonzero;stroke:none"
         d="m 11524.5,436.066 8.9,46.524 65.4,0 -11,-50.692 c 44.8,54.852 92.3,59.719 121.9,59.719 76.5,0 92.3,-39.582 99.2,-65.273 15.8,19.445 53.7,65.273 130.1,65.273 49.6,0 122.6,-20.832 101.3,-123.601 l -49.6,-234 -65.4,0 46.8,223.586 c 6.9,30.55 4.1,43.746 0,52.773 -8.3,15.969 -26.9,30.551 -59.9,30.551 -42,0 -69.5,-24.301 -81.3,-36.801 -19.9,-21.527 -28.2,-59.719 -31,-74.992 l -41.3,-195.117 -65.4,0 48.9,230.527 c 8.9,43.055 -9,76.383 -59.9,76.383 -44.1,0 -74.4,-27.774 -84,-38.192 -18.6,-20.136 -25.5,-48.605 -29.7,-70.824 l -42,-197.894 -65.4,0 63.4,302.05"
         inkscape:connector-curvature="0" /><path
         id="path84"
         style="fill:#393536;fill-opacity:1;fill-rule:nonzero;stroke:none"
         d="m 12265.6,168.73 c 16.6,0 51.7,3.473 79.9,34.024 31.7,34.023 46.2,84.019 50.9,109.019 13.8,62.497 9,127.766 -67.4,127.766 -103.3,0 -126.7,-110.406 -133.6,-141.656 -9,-42.356 -20.7,-129.153 70.2,-129.153 z m -105.3,256.918 c 3.4,15.278 4.1,23.606 10.3,56.942 l 65.4,0 -11,-57.633 c 44.1,54.855 102.6,63.188 130.8,63.188 74.4,0 135,-51.383 107.5,-180.536 -27.6,-129.847 -114.3,-186.793 -197,-186.793 -50.2,0 -82.7,21.532 -95,52.086 L 12134.8,0 l -64.1,0 89.6,425.648"
         inkscape:connector-curvature="0" /><path
         id="path86"
         style="fill:#393536;fill-opacity:1;fill-rule:nonzero;stroke:none"
         d="m 12716.1,305.523 c -26.2,0 -124.7,0 -139.8,-70.824 -4.8,-22.219 0.7,-60.41 58.5,-60.41 33.1,0 60.6,13.188 82,37.496 19.3,23.606 24.1,43.051 35.8,91.653 -11.7,1.39 -20.7,2.085 -36.5,2.085 z m 8.3,-171.507 c -1.5,17.355 0.7,34.023 4.8,52.074 -43.4,-57.629 -90.9,-63.184 -119.8,-63.184 -79.3,0 -113,45.133 -100.6,102.766 6.2,27.777 24.8,72.211 81.9,102.07 42,20.836 97.1,22.914 124.7,22.914 16.5,0 26.9,-0.695 46.8,-2.078 9,43.047 13.1,61.797 3.5,77.07 -9,17.364 -36.5,22.918 -55.1,22.918 -65.5,0 -78.6,-45.136 -82,-59.019 l -64.7,0 c 6.2,18.051 13.1,42.351 37.9,65.961 32.3,29.164 83.3,37.496 119.8,37.496 50.2,0 100.6,-15.969 111.6,-51.383 6.9,-20.832 4.1,-37.496 0.7,-53.469 L 12796,221.504 c -1.4,-5.551 -10.4,-52.074 -13.1,-87.488 l -58.5,0"
         inkscape:connector-curvature="0" /><path
         id="path88"
         style="fill:#393536;fill-opacity:1;fill-rule:nonzero;stroke:none"
         d="m 12950.8,442.316 8.2,40.274 64.8,0 -11.7,-56.246 c 11,14.582 46.1,63.187 124.6,63.187 31,0 122.6,-11.801 99.9,-118.73 l -49.6,-236.785 -66.1,0 46.8,221.507 c 4.8,22.911 6.2,43.739 -6.2,59.711 -13.1,15.973 -34.4,23.61 -56.4,23.61 -46.9,0 -97.2,-34.024 -112.3,-104.156 l -42,-200.672 -64.8,0 64.8,308.3"
         inkscape:connector-curvature="0" /><path
         id="path90"
         style="fill:#393536;fill-opacity:1;fill-rule:nonzero;stroke:none"
         d="m 13438.6,131.934 -76.5,-129.85197 -66.8,0 79.9,133.31997 -70.2,347.188 73,0 50.3,-274.977 168,274.977 70.3,0 -228,-350.656"
         inkscape:connector-curvature="0" /></g></g></svg>